<svg width="21" height="19" viewBox="0 0 21 19" fill="none" xmlns="http://www.w3.org/2000/svg">
<path d="M10.4365 0.712984C10.2876 0.718791 10.1427 0.760696 10.0156 0.834726C9.8885 0.908756 9.78335 1.01246 9.71013 1.13601L6.75701 6.13423C6.68335 6.25892 6.64466 6.39956 6.64466 6.54262C6.64466 6.68567 6.68335 6.82631 6.75701 6.951L9.48796 11.5734L4.13884 11.5701C3.99075 11.5699 3.84502 11.6055 3.7153 11.6735C3.58558 11.7415 3.47611 11.8397 3.39714 11.959L0.13469 16.8759C0.0512998 17.0019 0.00491653 17.1469 0.00036976 17.2957C-0.00417701 17.4446 0.033279 17.5919 0.108838 17.7223C0.184397 17.8528 0.295296 17.9615 0.429988 18.0373C0.56468 18.113 0.71824 18.153 0.874681 18.1531H6.99968C7.15022 18.153 7.29821 18.116 7.42933 18.0456C7.56046 17.9752 7.67029 17.8738 7.74822 17.7512L10.4997 13.4135L13.2512 17.7512C13.3291 17.8738 13.4389 17.9752 13.57 18.0456C13.7012 18.116 13.8491 18.153 13.9997 18.1531H20.1247C20.2811 18.153 20.4347 18.113 20.5694 18.0373C20.7041 17.9615 20.815 17.8528 20.8905 17.7223C20.9661 17.5919 21.0035 17.4446 20.999 17.2957C20.9944 17.1469 20.9481 17.0019 20.8647 16.8759L17.6022 11.959C17.5233 11.8397 17.4138 11.7415 17.2841 11.6735C17.1543 11.6055 17.0086 11.5699 16.8605 11.5701L11.4567 11.5734L14.1877 6.951C14.2613 6.82631 14.3 6.68567 14.3 6.54262C14.3 6.39956 14.2613 6.25892 14.1877 6.13423L11.2345 1.13601C11.1553 1.00236 11.0389 0.892136 10.8981 0.81749C10.7572 0.742845 10.5975 0.70668 10.4365 0.712984ZM10.4723 3.24301L12.4223 6.54262L10.4723 9.84223L8.5241 6.54262L10.4723 3.24301ZM4.61907 13.2362L8.56682 13.2378L6.50579 16.487H2.46233L4.61907 13.2362ZM16.3803 13.2362L18.537 16.487H14.4936L12.4325 13.2378L16.3803 13.2362Z" fill="#B44F4F"/>
</svg>
